# Blender v2.77 (sub 0) OBJ File: 'car 1.blend'
# www.blender.org
mtllib car 1.mtl
o Car_Body
v -0.777801 0.304673 0.627223
v -0.661445 0.304589 -1.330566
v 0.660835 0.304589 -1.330566
v 0.777213 0.304673 0.627223
v -0.625523 1.695411 0.277565
v -0.660869 1.456621 -1.113706
v 0.655862 1.456621 -1.113705
v 0.651809 1.695411 0.277565
v -0.777801 0.821451 0.627223
v -0.693954 0.731200 -1.400123
v 0.699428 0.741760 -1.395551
v 0.777213 0.821451 0.627223
v -0.664281 0.304590 1.400122
v 0.663671 0.304590 1.400123
v -0.664281 0.664280 1.400122
v 0.663671 0.664280 1.400123
v -0.777528 0.304589 -0.689673
v 0.776918 0.304589 -0.689672
v -0.640766 1.674590 -0.516076
v 0.636566 1.674590 -0.516075
v 0.777801 0.760868 -0.713090
v -0.776601 0.750309 -0.717662
v 0.736184 0.304643 1.197458
v -0.736780 0.304643 1.197459
v -0.736781 0.764657 1.197460
v 0.736184 0.764657 1.197459
vn 0.0000 0.9395 -0.3426
vn -0.9899 0.1224 -0.0710
vn 0.0001 0.3670 -0.9302
vn 0.9891 0.1465 -0.0124
vn -0.0000 0.3715 0.9284
vn 1.0000 -0.0009 0.0001
vn -0.9877 -0.0523 -0.1476
vn -0.0000 0.0000 1.0000
vn -0.9416 -0.0000 0.3368
vn 0.9415 -0.0000 0.3369
vn 0.0000 0.8961 0.4438
vn -1.0000 0.0009 -0.0006
vn 0.9878 -0.0579 -0.1443
vn 0.9886 0.1328 -0.0702
vn -0.9874 0.1582 -0.0003
vn 0.0000 0.9997 -0.0262
vn 0.0023 -0.1539 -0.9881
vn 0.0000 0.9951 0.0991
vn 0.9974 -0.0000 0.0718
vn -0.9974 -0.0000 0.0718
vn 0.0000 -1.0000 0.0000
vn -0.0000 -1.0000 0.0001
vn -0.0000 -1.0000 -0.0003
vn -0.0000 -1.0000 -0.0001
usemtl Material
s off
f 19//1 20//1 7//1 6//1
f 22//2 19//2 6//2 10//2
f 10//3 6//3 7//3 11//3
f 21//4 20//4 8//4 12//4
f 5//5 9//5 12//5 8//5
f 18//6 21//6 12//6 4//6
f 17//7 22//7 10//7 2//7
f 15//8 13//8 14//8 16//8
f 25//9 24//9 13//9 15//9
f 23//10 26//10 16//10 14//10
f 26//11 25//11 15//11 16//11
f 1//12 9//12 22//12 17//12
f 3//13 11//13 21//13 18//13
f 11//14 7//14 20//14 21//14
f 9//15 5//15 19//15 22//15
f 5//16 8//16 20//16 19//16
f 3//17 2//17 10//17 11//17
f 12//18 9//18 25//18 26//18
f 4//19 12//19 26//19 23//19
f 9//20 1//20 24//20 25//20
f 17//21 2//21 3//21 18//21
f 4//22 1//22 17//22 18//22
f 13//23 24//23 23//23 14//23
f 1//24 4//24 23//24 24//24
o Wheels_Cylinder
v -0.751538 0.256811 0.569352
v -0.751538 0.435645 0.610224
v -0.751538 0.566560 0.721889
v -0.751538 0.614478 0.874426
v -0.751538 0.566560 1.026963
v -0.751538 0.435645 1.138628
v -0.751538 0.256811 1.179500
v -0.751538 0.077978 1.138628
v -0.751538 -0.052937 1.026963
v -0.751538 -0.100856 0.874426
v -0.751538 -0.052937 0.721889
v -0.751538 0.077978 0.610224
v -0.831442 0.256811 0.569352
v -0.831442 0.435645 0.610224
v -0.831442 0.566560 0.721889
v -0.831442 0.614478 0.874426
v -0.831442 0.566560 1.026963
v -0.831442 0.435645 1.138628
v -0.831442 0.256811 1.179500
v -0.831442 0.077978 1.138628
v -0.831442 -0.052937 1.026963
v -0.831442 -0.100856 0.874426
v -0.831442 -0.052937 0.721889
v -0.831442 0.077978 0.610224
v -0.751538 0.256811 -1.139062
v -0.751538 0.435645 -1.098190
v -0.751538 0.566560 -0.986525
v -0.751538 0.614478 -0.833988
v -0.751538 0.566560 -0.681451
v -0.751538 0.435645 -0.569786
v -0.751538 0.256811 -0.528914
v -0.751538 0.077978 -0.569786
v -0.751538 -0.052937 -0.681451
v -0.751538 -0.100856 -0.833988
v -0.751538 -0.052937 -0.986525
v -0.751538 0.077978 -1.098190
v -0.831442 0.256811 -1.139062
v -0.831442 0.435645 -1.098190
v -0.831442 0.566560 -0.986525
v -0.831442 0.614478 -0.833988
v -0.831442 0.566560 -0.681451
v -0.831442 0.435645 -0.569786
v -0.831442 0.256811 -0.528914
v -0.831442 0.077978 -0.569786
v -0.831442 -0.052937 -0.681451
v -0.831442 -0.100856 -0.833988
v -0.831442 -0.052937 -0.986525
v -0.831442 0.077978 -1.098190
v 0.751538 0.256811 0.569352
v 0.751538 0.435645 0.610224
v 0.751538 0.566560 0.721889
v 0.751538 0.614478 0.874426
v 0.751538 0.566560 1.026963
v 0.751538 0.435645 1.138628
v 0.751538 0.256812 1.179500
v 0.751538 0.077978 1.138628
v 0.751538 -0.052937 1.026963
v 0.751538 -0.100855 0.874426
v 0.751538 -0.052937 0.721889
v 0.751538 0.077978 0.610224
v 0.831442 0.256811 0.569352
v 0.831442 0.435645 0.610224
v 0.831442 0.566560 0.721889
v 0.831442 0.614478 0.874426
v 0.831442 0.566560 1.026963
v 0.831442 0.435645 1.138628
v 0.831442 0.256812 1.179500
v 0.831442 0.077978 1.138628
v 0.831442 -0.052937 1.026963
v 0.831442 -0.100855 0.874426
v 0.831442 -0.052937 0.721889
v 0.831442 0.077978 0.610224
v 0.751538 0.256811 -1.139062
v 0.751538 0.435645 -1.098190
v 0.751538 0.566560 -0.986525
v 0.751538 0.614478 -0.833988
v 0.751538 0.566560 -0.681451
v 0.751538 0.435645 -0.569786
v 0.751538 0.256812 -0.528914
v 0.751538 0.077978 -0.569786
v 0.751538 -0.052937 -0.681451
v 0.751538 -0.100855 -0.833988
v 0.751538 -0.052937 -0.986525
v 0.751538 0.077978 -1.098190
v 0.831442 0.256811 -1.139062
v 0.831442 0.435645 -1.098190
v 0.831442 0.566560 -0.986525
v 0.831442 0.614478 -0.833988
v 0.831442 0.566560 -0.681451
v 0.831442 0.435645 -0.569786
v 0.831442 0.256812 -0.528914
v 0.831442 0.077978 -0.569786
v 0.831442 -0.052937 -0.681451
v 0.831442 -0.100855 -0.833988
v 0.831442 -0.052937 -0.986525
v 0.831442 0.077978 -1.098190
vn 1.0000 -0.0000 0.0000
vn -1.0000 -0.0000 0.0000
vn 0.0000 -0.2228 0.9749
vn 0.0000 0.9540 0.2997
vn 0.0000 -0.6490 -0.7608
vn 0.0000 0.2228 -0.9749
vn 0.0000 -0.6490 0.7608
vn 0.0000 0.6490 0.7608
vn 0.0000 -0.2228 -0.9749
vn 0.0000 0.6490 -0.7608
vn 0.0000 -0.9540 0.2997
vn 0.0000 0.2228 0.9749
vn 0.0000 0.9540 -0.2997
vn 0.0000 -0.9540 -0.2997
usemtl None
s off
f 28//25 29//25 30//25 31//25 32//25 33//25 34//25 35//25 36//25 37//25 38//25 27//25
f 40//26 39//26 50//26 49//26 48//26 47//26 46//26 45//26 44//26 43//26 42//26 41//26
f 33//27 45//27 46//27 34//27
f 30//28 42//28 43//28 31//28
f 37//29 49//29 50//29 38//29
f 27//30 39//30 40//30 28//30
f 34//31 46//31 47//31 35//31
f 31//32 43//32 44//32 32//32
f 38//33 50//33 39//33 27//33
f 28//34 40//34 41//34 29//34
f 35//35 47//35 48//35 36//35
f 32//36 44//36 45//36 33//36
f 29//37 41//37 42//37 30//37
f 36//38 48//38 49//38 37//38
f 52//25 53//25 54//25 55//25 56//25 57//25 58//25 59//25 60//25 61//25 62//25 51//25
f 64//26 63//26 74//26 73//26 72//26 71//26 70//26 69//26 68//26 67//26 66//26 65//26
f 57//27 69//27 70//27 58//27
f 54//28 66//28 67//28 55//28
f 61//29 73//29 74//29 62//29
f 51//30 63//30 64//30 52//30
f 58//31 70//31 71//31 59//31
f 55//32 67//32 68//32 56//32
f 62//33 74//33 63//33 51//33
f 52//34 64//34 65//34 53//34
f 59//35 71//35 72//35 60//35
f 56//36 68//36 69//36 57//36
f 53//37 65//37 66//37 54//37
f 60//38 72//38 73//38 61//38
f 76//26 75//26 86//26 85//26 84//26 83//26 82//26 81//26 80//26 79//26 78//26 77//26
f 88//25 89//25 90//25 91//25 92//25 93//25 94//25 95//25 96//25 97//25 98//25 87//25
f 81//27 82//27 94//27 93//27
f 78//28 79//28 91//28 90//28
f 85//29 86//29 98//29 97//29
f 75//30 76//30 88//30 87//30
f 82//31 83//31 95//31 94//31
f 79//32 80//32 92//32 91//32
f 86//33 75//33 87//33 98//33
f 76//34 77//34 89//34 88//34
f 83//35 84//35 96//35 95//35
f 80//36 81//36 93//36 92//36
f 77//37 78//37 90//37 89//37
f 84//38 85//38 97//38 96//38
f 100//26 99//26 110//26 109//26 108//26 107//26 106//26 105//26 104//26 103//26 102//26 101//26
f 112//25 113//25 114//25 115//25 116//25 117//25 118//25 119//25 120//25 121//25 122//25 111//25
f 105//27 106//27 118//27 117//27
f 102//28 103//28 115//28 114//28
f 109//29 110//29 122//29 121//29
f 99//30 100//30 112//30 111//30
f 106//31 107//31 119//31 118//31
f 103//32 104//32 116//32 115//32
f 110//33 99//33 111//33 122//33
f 100//34 101//34 113//34 112//34
f 107//35 108//35 120//35 119//35
f 104//36 105//36 117//36 116//36
f 101//37 102//37 114//37 113//37
f 108//38 109//38 121//38 120//38
